TITLE IЯiDÉSCEИT%V!SIØN
PERFORMER 喜多村英梨
FILE "" WAVE
  TRACK 01 AUDIO
    TITLE D!zzy...&
    COMPOSER "Village wood"
    PERFORMER 喜多村英梨
    INDEX 01 00:00:00
  TRACK 02 AUDIO
    TITLE SynApsE
    COMPOSER 古宇田亘
    PERFORMER 喜多村英梨
    INDEX 01 03:54:74
  TRACK 03 AUDIO
    TITLE ヱゴヰズム
    COMPOSER "Village wood"
    PERFORMER 喜多村英梨
    INDEX 01 07:10:61
  TRACK 04 AUDIO
    TITLE ANGER%
    COMPOSER Han
    PERFORMER 喜多村英梨
    INDEX 01 10:32:72
  TRACK 05 AUDIO
    TITLE 禁断果実
    COMPOSER Han
    PERFORMER 喜多村英梨
    INDEX 01 15:45:30
  TRACK 06 AUDIO
    TITLE "Belief in Oneself"
    COMPOSER Han
    PERFORMER 喜多村英梨
    INDEX 01 18:57:72
  TRACK 07 AUDIO
    TITLE "SH!NE GO!NG UP"
    COMPOSER YutoMinami
    PERFORMER 喜多村英梨
    INDEX 01 22:27:56
  TRACK 08 AUDIO
    TITLE HOLy×SH!T
    COMPOSER "Village wood"
    PERFORMER 喜多村英梨
    INDEX 01 26:51:47
  TRACK 09 AUDIO
    TITLE ETERNiTY
    COMPOSER "Village wood"
    PERFORMER 喜多村英梨
    INDEX 01 31:21:34
  TRACK 010 AUDIO
    TITLE 虹色
    COMPOSER 古宇田亘
    PERFORMER 喜多村英梨
    INDEX 01 35:53:34
  TRACK 011 AUDIO
    TITLE "ヱゴヰズム (- Pf MiX -)"
    COMPOSER "Village wood"
    PERFORMER 喜多村英梨
    INDEX 01 39:52:48
  TRACK 012 AUDIO
    TITLE "禁断果実 (- Pf MiX -)"
    COMPOSER Han
    PERFORMER 喜多村英梨
    INDEX 01 43:26:24
  TRACK 013 AUDIO
    TITLE "SH!NE GO!NG UP (- Pf MiX -)"
    COMPOSER YutoMinami
    PERFORMER 喜多村英梨
    INDEX 01 46:49:03

